<?xml version="1.0" standalone="no"?><!DOCTYPE svg PUBLIC "-//W3C//DTD SVG 1.1//EN" "http://www.w3.org/Graphics/SVG/1.1/DTD/svg11.dtd"><svg width="100%" height="100%" viewBox="0 0 730 365" version="1.1" xmlns="http://www.w3.org/2000/svg" xmlns:xlink="http://www.w3.org/1999/xlink" xml:space="preserve" style="fill-rule:evenodd;clip-rule:evenodd;stroke-linecap:round;stroke-linejoin:round;stroke-miterlimit:1.41421;"><g id="Background"><circle id="Circle Outer" cx="197.546" cy="171.248" r="155.725" style="fill:#523a2c;"/><circle id="Circle Inner" cx="197.546" cy="171.248" r="143.976" style="fill:#f5edcd;"/></g><g id="Cupcake"><clipPath id="_clip1"><path id="Cup Outer" d="M246.258,233.562l-110.048,0l4.3,64.26l101.449,0l4.299,-64.26Z"/></clipPath><g clip-path="url(#_clip1)"><path d="M244.527,237.225l-96.776,0l2.993,60.169l90.79,0l2.993,-60.169Z" style="fill:#e35a7c;"/></g><path d="M246.258,233.562l-110.048,0l4.3,64.26l101.449,0l4.299,-64.26Z" style="fill:none;stroke-width:9px;stroke:#523a2c;"/><clipPath id="_clip2"><path id="Scoop Lower Outer" d="M259.085,223.987c0,-5.299 -4.302,-9.602 -9.601,-9.602l-116.319,0c-5.299,0 -9.601,4.303 -9.601,9.602c0,5.299 4.302,9.601 9.601,9.601l116.319,0c5.299,0 9.601,-4.302 9.601,-9.601Z"/></clipPath><g clip-path="url(#_clip2)"><path id="Filling Lower" d="M258.246,228.554c0,-2.982 -2.421,-5.403 -5.403,-5.403l-111.548,0c-2.982,0 -5.403,2.421 -5.403,5.403c0,2.982 2.421,5.403 5.403,5.403l111.548,0c2.982,0 5.403,-2.421 5.403,-5.403Z" style="fill:#e35a7c;"/></g><path d="M259.085,223.987c0,-5.299 -4.302,-9.602 -9.601,-9.602l-116.319,0c-5.299,0 -9.601,4.303 -9.601,9.602c0,5.299 4.302,9.601 9.601,9.601l116.319,0c5.299,0 9.601,-4.302 9.601,-9.601Z" style="fill:none;stroke-width:9px;stroke:#523a2c;"/><clipPath id="_clip3"><path id="Scoop Middle Outer" d="M248.34,203.449c0,-5.58 -4.53,-10.111 -10.111,-10.111l-94.661,0c-5.581,0 -10.112,4.531 -10.112,10.111c0,5.581 4.531,10.112 10.112,10.112l94.661,0c5.581,0 10.111,-4.531 10.111,-10.112Z"/></clipPath><g clip-path="url(#_clip3)"><path id="Filling Middle" d="M249.93,209.488c0,-1.926 -1.563,-3.49 -3.489,-3.49l-95.705,0c-1.926,0 -3.489,1.564 -3.489,3.49c0,1.925 1.563,3.489 3.489,3.489l95.705,0c1.926,0 3.489,-1.564 3.489,-3.489Z" style="fill:#e35a7c;"/></g><path d="M248.34,203.449c0,-5.58 -4.53,-10.111 -10.111,-10.111l-94.661,0c-5.581,0 -10.112,4.531 -10.112,10.111c0,5.581 4.531,10.112 10.112,10.112l94.661,0c5.581,0 10.111,-4.531 10.111,-10.112Z" style="fill:none;stroke-width:9px;stroke:#523a2c;"/><clipPath id="_clip4"><path id="Scoop Top Outer" d="M234.232,182.406c0,-6.028 -4.894,-10.921 -10.921,-10.921l-65.006,0c-6.027,0 -10.921,4.893 -10.921,10.921c0,6.027 4.894,10.921 10.921,10.921l65.006,0c6.027,0 10.921,-4.894 10.921,-10.921Z"/></clipPath><g clip-path="url(#_clip4)"><path id="Filling Upper" d="M235.084,188.089c0,-2.027 -1.646,-3.673 -3.673,-3.673l-67.984,0c-2.028,0 -3.674,1.646 -3.674,3.673c0,2.027 1.646,3.673 3.674,3.673l67.984,0c2.027,0 3.673,-1.646 3.673,-3.673Z" style="fill:#e35a7c;"/></g><path d="M234.232,182.406c0,-6.028 -4.894,-10.921 -10.921,-10.921l-65.006,0c-6.027,0 -10.921,4.893 -10.921,10.921c0,6.027 4.894,10.921 10.921,10.921l65.006,0c6.027,0 10.921,-4.894 10.921,-10.921Z" style="fill:none;stroke-width:9px;stroke:#523a2c;"/><path d="M162.024,188.823l-0.023,-0.111l8.809,-0.582l2.748,10.402l-8.364,-0.234l-3.124,-0.088l-0.308,-0.366l0.002,-0.001c-0.06,0.001 -0.115,-0.003 -0.176,-0.003c1.175,-0.204 3.666,-2.512 3.666,-4.51c0,-1.998 -1.645,-3.762 -3.671,-4.515c0.148,0 0.295,0.003 0.441,0.008Z" style="fill:#f5edcd;"/><path d="M196.967,167.386l-0.042,-2.458l14.984,-0.979l4.345,12.977l-15.484,-0.337l-7.735,-0.078c-0.32,0.013 0.284,-0.519 -0.043,-0.519c1.653,-0.842 3.083,-2.65 3.083,-4.458c0,-1.807 -1.399,-3.471 -3.122,-4.514c1.425,0 2.782,0.13 4.014,0.366Z" style="fill:#f5edcd;"/><path id="Filling Upper1" d="M174.37,188.151c0,-2.028 -1.646,-3.673 -3.673,-3.673l-7.27,0c-2.028,0 -3.674,1.645 -3.674,3.673c0,2.027 1.646,3.673 3.674,3.673l7.27,0c2.027,0 3.673,-1.646 3.673,-3.673Z" style="fill:#e35a7c;"/><path d="M160.669,188.263c1.038,0.137 0.653,2.851 0.727,2.886c2.366,1.134 -0.973,6.035 1.431,6.022c2.433,-0.013 7.296,-0.953 7.155,4.649c-0.056,2.204 -3.31,4.48 -4.626,5.284c-0.515,0.314 36.85,0.238 36.85,0.238c-11.743,2.923 -11.287,-9.634 -19.769,-9.991c-1.976,-0.083 -3.593,-8.299 0.433,-8.52c11.887,-0.653 -0.662,-0.695 -11.171,-0.645c-5.508,0.025 -10.455,0.076 -11.03,0.077Z" style="fill:#e35a7c;"/><path d="M201.631,110.637c3.255,1.282 6.587,5.922 7.619,7.922c3.366,6.52 5.717,15.908 1.73,21.686c-2.749,3.984 -6.517,8.999 -11.029,10.472c-12.698,4.145 -30.203,3.679 -25.558,16.314c0.312,0.848 10.957,0.236 16.019,0.112c2.913,-0.071 2.162,2.057 3.83,2.531c3.298,0.937 6.167,-0.363 9.43,0.723c2.942,0.98 5.348,3.045 4.897,7.045c-0.404,3.575 -5.083,6.93 -5.666,6.979c-4.408,0.372 10.597,1.324 20.599,3.863c7.247,1.84 9.399,-11.651 1.061,-18.255c-4.173,-3.305 -2.92,-5.229 -6.123,-8.476c-3.293,-3.338 -4.074,-8.775 -3.457,-13.639c0.935,-7.368 4.654,-15.015 1.966,-22.721c-1.448,-4.152 -4.066,-8.357 -7.33,-11.153c-1.415,-1.211 -3.296,-2.059 -4.901,-3.005c-0.521,-0.307 -3.521,-2.436 -3.541,-1.082" style="fill:#e35a7c;"/><path d="M159.922,169.114c-4.069,-0.81 -3.675,-6.666 -3.622,-8.85c0.09,-3.735 1.656,-8.771 4.585,-11.359c8.73,-7.715 22.618,-10.713 30.094,-19.333c4.316,-4.976 3.846,-12.205 0.301,-17.51c-0.817,-1.224 -15.174,-12.911 -5.192,-13.453c2.507,-0.136 5.065,-0.229 7.525,0.266c4.441,0.893 8.942,1.911 13.028,3.866c4.061,1.943 7.671,4.774 11.105,7.684c7.896,6.689 9.954,18.265 8.062,27.979c-1.563,8.028 -4.605,11.505 0.053,19.596c3.792,6.584 11.717,10.733 14.248,18.143c1.01,2.958 1.091,6.178 1.183,9.303c0.023,0.771 -0.037,6.832 -3.13,6.505c-3.775,-0.399 -7.744,-1.101 -10.947,-3.138c-0.946,-0.602 1.884,-1.299 2.526,-2.218c2.37,-3.393 3.406,-6.435 2.937,-10.609c-0.373,-3.316 -7.383,-5.626 -9.103,-7.12c-2.693,-2.34 -8.107,-9.63 -8.778,-12.741c-1.472,-6.82 1.776,-15.913 1.883,-22.572c0.153,-9.498 -2.932,-17.819 -11.782,-22.135c-0.736,-0.359 -2.337,-1.037 -2.447,-0.225c-0.395,2.915 1.256,5.789 1.295,8.73c0.055,4.071 -1.529,9.721 -4.335,12.822c-8.7,9.618 -21.384,11.498 -30.751,20.386c-3.588,3.405 -4.084,9.96 -0.747,12.869c0.228,0.199 2.075,1.401 3.913,1.072" style="fill:#523a2c;"/></g><g id="Cloud Left"><path d="M87.81,299.078c-0.064,-0.782 -0.096,-1.566 -0.096,-2.351c0,-18.919 16.034,-34.047 38.487,-34.047c18.324,0 30.139,15.477 35.223,29.523c3.071,-0.977 4.877,-4.23 12.295,-4.796c16.819,-1.284 30.17,10.739 30.17,26.678c0,15.448 -12.863,28.079 -29.012,28.843c-1.101,0.153 -2.227,0.232 -3.373,0.232l-86.777,0c-12.79,0 -23.174,-9.881 -23.174,-22.053c0,-11.959 13.775,-21.693 26.257,-22.029Z" style="fill:#e35a7c;stroke-width:9px;stroke:#523a2c;"/></g><g id="Cloud Right"><path d="M252.617,272.504c0.677,-1.832 1.575,-3.784 2.667,-5.715c3.88,-6.859 10.217,-13.456 17.826,-13.456c10.301,0 20.353,8.461 19.683,17.536c9.281,0.466 17.756,10.004 18.534,20.573c1.021,13.884 -8.698,25.893 -21.689,26.8c-9.994,0.698 -19.032,-5.374 -23.136,-14.533l-18.836,0c-10.213,0 -18.504,-8.08 -18.504,-18.032c0,-9.951 8.933,-17.445 19.146,-17.445l4.309,4.272Z" style="fill:#e35a7c;stroke-width:9px;stroke:#523a2c;"/></g><g id="Font"><text x="376.88px" y="211.364px" style="font-family:'SignPainter-HouseScript';font-size:160.463px;fill:#523a2c;">F<tspan x="434.005px 467.702px 532.529px 571.521px " y="211.364px 211.364px 211.364px 211.364px ">luff</tspan>y</text></g></svg>