<?xml version="1.0" standalone="no"?><!DOCTYPE svg PUBLIC "-//W3C//DTD SVG 1.1//EN" "http://www.w3.org/Graphics/SVG/1.1/DTD/svg11.dtd"><svg width="100%" height="100%" viewBox="0 0 365 365" version="1.1" xmlns="http://www.w3.org/2000/svg" xmlns:xlink="http://www.w3.org/1999/xlink" xml:space="preserve" style="fill-rule:evenodd;clip-rule:evenodd;stroke-linecap:round;stroke-linejoin:round;stroke-miterlimit:1.41421;"><g id="Background"><circle id="Circle Outer" cx="182.61" cy="171.248" r="155.725" style="fill:#523a2c;"/><circle id="Circle Inner" cx="182.61" cy="171.248" r="143.976" style="fill:#f5edcd;"/></g><g id="Cupcake"><clipPath id="_clip1"><path id="Cup Outer" d="M231.322,233.562l-110.048,0l4.299,64.26l101.45,0l4.299,-64.26Z"/></clipPath><g clip-path="url(#_clip1)"><path d="M229.59,237.225l-96.775,0l2.993,60.169l90.789,0l2.993,-60.169Z" style="fill:#e35a7c;"/></g><path d="M231.322,233.562l-110.048,0l4.299,64.26l101.45,0l4.299,-64.26Z" style="fill:none;stroke-width:9px;stroke:#523a2c;"/><clipPath id="_clip2"><path id="Scoop Lower Outer" d="M244.149,223.987c0,-5.299 -4.303,-9.602 -9.602,-9.602l-116.319,0c-5.299,0 -9.601,4.303 -9.601,9.602c0,5.299 4.302,9.601 9.601,9.601l116.319,0c5.299,0 9.602,-4.302 9.602,-9.601Z"/></clipPath><g clip-path="url(#_clip2)"><path id="Filling Lower" d="M243.309,228.554c0,-2.982 -2.421,-5.403 -5.403,-5.403l-111.547,0c-2.982,0 -5.403,2.421 -5.403,5.403c0,2.982 2.421,5.403 5.403,5.403l111.547,0c2.982,0 5.403,-2.421 5.403,-5.403Z" style="fill:#e35a7c;"/></g><path d="M244.149,223.987c0,-5.299 -4.303,-9.602 -9.602,-9.602l-116.319,0c-5.299,0 -9.601,4.303 -9.601,9.602c0,5.299 4.302,9.601 9.601,9.601l116.319,0c5.299,0 9.602,-4.302 9.602,-9.601Z" style="fill:none;stroke-width:9px;stroke:#523a2c;"/><clipPath id="_clip3"><path id="Scoop Middle Outer" d="M233.404,203.449c0,-5.58 -4.531,-10.111 -10.112,-10.111l-94.661,0c-5.581,0 -10.111,4.531 -10.111,10.111c0,5.581 4.53,10.112 10.111,10.112l94.661,0c5.581,0 10.112,-4.531 10.112,-10.112Z"/></clipPath><g clip-path="url(#_clip3)"><path id="Filling Middle" d="M234.994,209.488c0,-1.926 -1.564,-3.49 -3.49,-3.49l-95.705,0c-1.926,0 -3.489,1.564 -3.489,3.49c0,1.925 1.563,3.489 3.489,3.489l95.705,0c1.926,0 3.49,-1.564 3.49,-3.489Z" style="fill:#e35a7c;"/></g><path d="M233.404,203.449c0,-5.58 -4.531,-10.111 -10.112,-10.111l-94.661,0c-5.581,0 -10.111,4.531 -10.111,10.111c0,5.581 4.53,10.112 10.111,10.112l94.661,0c5.581,0 10.112,-4.531 10.112,-10.112Z" style="fill:none;stroke-width:9px;stroke:#523a2c;"/><clipPath id="_clip4"><path id="Scoop Top Outer" d="M219.295,182.406c0,-6.028 -4.893,-10.921 -10.921,-10.921l-65.005,0c-6.028,0 -10.921,4.893 -10.921,10.921c0,6.027 4.893,10.921 10.921,10.921l65.005,0c6.028,0 10.921,-4.894 10.921,-10.921Z"/></clipPath><g clip-path="url(#_clip4)"><path id="Filling Upper" d="M220.148,188.089c0,-2.027 -1.646,-3.673 -3.673,-3.673l-67.985,0c-2.027,0 -3.673,1.646 -3.673,3.673c0,2.027 1.646,3.673 3.673,3.673l67.985,0c2.027,0 3.673,-1.646 3.673,-3.673Z" style="fill:#e35a7c;"/></g><path d="M219.295,182.406c0,-6.028 -4.893,-10.921 -10.921,-10.921l-65.005,0c-6.028,0 -10.921,4.893 -10.921,10.921c0,6.027 4.893,10.921 10.921,10.921l65.005,0c6.028,0 10.921,-4.894 10.921,-10.921Z" style="fill:none;stroke-width:9px;stroke:#523a2c;"/><path d="M147.087,188.823l-0.022,-0.111l8.808,-0.582l2.748,10.402l-8.364,-0.234l-3.123,-0.088l-0.309,-0.366l0.002,-0.001c-0.06,0.001 -0.115,-0.003 -0.175,-0.003c1.175,-0.204 3.666,-2.512 3.666,-4.51c0,-1.998 -1.645,-3.762 -3.671,-4.515c0.148,0 0.295,0.003 0.44,0.008Z" style="fill:#f5edcd;"/><path d="M182.031,167.386l-0.042,-2.458l14.983,-0.979l4.346,12.977l-15.485,-0.337l-7.735,-0.078c-0.319,0.013 0.285,-0.519 -0.042,-0.519c1.652,-0.842 3.082,-2.65 3.082,-4.458c0,-1.807 -1.399,-3.471 -3.122,-4.514c1.426,0 2.783,0.13 4.015,0.366Z" style="fill:#f5edcd;"/><path id="Filling Upper1" d="M159.434,188.151c0,-2.028 -1.646,-3.673 -3.673,-3.673l-7.271,0c-2.027,0 -3.673,1.645 -3.673,3.673c0,2.027 1.646,3.673 3.673,3.673l7.271,0c2.027,0 3.673,-1.646 3.673,-3.673Z" style="fill:#e35a7c;"/><path d="M145.732,188.263c1.039,0.137 0.654,2.851 0.727,2.886c2.367,1.134 -0.972,6.035 1.432,6.022c2.433,-0.013 7.295,-0.953 7.154,4.649c-0.055,2.204 -3.309,4.48 -4.626,5.284c-0.515,0.314 36.851,0.238 36.851,0.238c-11.744,2.923 -11.287,-9.634 -19.769,-9.991c-1.977,-0.083 -3.594,-8.299 0.432,-8.52c11.888,-0.653 -0.662,-0.695 -11.171,-0.645c-5.507,0.025 -10.454,0.076 -11.03,0.077Z" style="fill:#e35a7c;"/><path d="M186.695,110.637c3.254,1.282 6.586,5.922 7.619,7.922c3.365,6.52 5.716,15.908 1.729,21.686c-2.749,3.984 -6.517,8.999 -11.029,10.472c-12.698,4.145 -30.203,3.679 -25.557,16.314c0.311,0.848 10.957,0.236 16.019,0.112c2.912,-0.071 2.162,2.057 3.829,2.531c3.299,0.937 6.168,-0.363 9.43,0.723c2.943,0.98 5.349,3.045 4.897,7.045c-0.403,3.575 -5.083,6.93 -5.665,6.979c-4.408,0.372 10.597,1.324 20.599,3.863c7.247,1.84 9.399,-11.651 1.061,-18.255c-4.173,-3.305 -2.921,-5.229 -6.124,-8.476c-3.292,-3.338 -4.074,-8.775 -3.456,-13.639c0.935,-7.368 4.653,-15.015 1.966,-22.721c-1.448,-4.152 -4.067,-8.357 -7.331,-11.153c-1.414,-1.211 -3.296,-2.059 -4.9,-3.005c-0.522,-0.307 -3.521,-2.436 -3.541,-1.082" style="fill:#e35a7c;"/><path d="M144.986,169.114c-4.07,-0.81 -3.675,-6.666 -3.623,-8.85c0.091,-3.735 1.657,-8.771 4.586,-11.359c8.729,-7.715 22.617,-10.713 30.094,-19.333c4.316,-4.976 3.846,-12.205 0.301,-17.51c-0.818,-1.224 -15.175,-12.911 -5.192,-13.453c2.506,-0.136 5.064,-0.229 7.525,0.266c4.441,0.893 8.942,1.911 13.028,3.866c4.06,1.943 7.67,4.774 11.105,7.684c7.895,6.689 9.953,18.265 8.062,27.979c-1.563,8.028 -4.606,11.505 0.053,19.596c3.792,6.584 11.717,10.733 14.248,18.143c1.01,2.958 1.09,6.178 1.183,9.303c0.023,0.771 -0.037,6.832 -3.131,6.505c-3.775,-0.399 -7.744,-1.101 -10.947,-3.138c-0.945,-0.602 1.885,-1.299 2.527,-2.218c2.369,-3.393 3.405,-6.435 2.936,-10.609c-0.372,-3.316 -7.382,-5.626 -9.102,-7.12c-2.694,-2.34 -8.107,-9.63 -8.779,-12.741c-1.471,-6.82 1.777,-15.913 1.884,-22.572c0.152,-9.498 -2.932,-17.819 -11.782,-22.135c-0.736,-0.359 -2.337,-1.037 -2.447,-0.225c-0.395,2.915 1.255,5.789 1.295,8.73c0.054,4.071 -1.53,9.721 -4.335,12.822c-8.7,9.618 -21.384,11.498 -30.752,20.386c-3.588,3.405 -4.084,9.96 -0.746,12.869c0.227,0.199 2.075,1.401 3.913,1.072" style="fill:#523a2c;"/></g><g id="Cloud Left"><path d="M72.874,299.078c-0.064,-0.782 -0.096,-1.566 -0.096,-2.351c0,-18.919 16.033,-34.047 38.486,-34.047c18.325,0 30.14,15.477 35.224,29.523c3.07,-0.977 4.876,-4.23 12.295,-4.796c16.819,-1.284 30.169,10.739 30.169,26.678c0,15.448 -12.863,28.079 -29.011,28.843c-1.101,0.153 -2.228,0.232 -3.373,0.232l-86.778,0c-12.79,0 -23.173,-9.881 -23.173,-22.053c0,-11.959 13.775,-21.693 26.257,-22.029Z" style="fill:#e35a7c;stroke-width:9px;stroke:#523a2c;"/></g><g id="Cloud Right"><path d="M237.681,272.504c0.676,-1.832 1.574,-3.784 2.667,-5.715c3.88,-6.859 10.217,-13.456 17.825,-13.456c10.302,0 20.354,8.461 19.684,17.536c9.281,0.466 17.756,10.004 18.533,20.573c1.021,13.884 -8.697,25.893 -21.689,26.8c-9.993,0.698 -19.032,-5.374 -23.136,-14.533l-18.836,0c-10.212,0 -18.503,-8.08 -18.503,-18.032c0,-9.951 8.933,-17.445 19.145,-17.445l4.31,4.272Z" style="fill:#e35a7c;stroke-width:9px;stroke:#523a2c;"/></g></svg>